<svg width="260" height="52" viewBox="9 0 151 32" fill="none" xmlns="http://www.w3.org/2000/svg"><path d="M20.25 13.5H22.5C24.9853 13.5 27 11.4853 27 9H20.25C15.2794 9 11.25 13.0294 11.25 18H15.75C15.75 15.5147 17.7647 13.5 20.25 13.5Z" fill="#7C4DFF"></path><path d="M15.75 22.5H13.5C11.0147 22.5 9 24.5147 9 27H15.75C20.7206 27 24.75 22.9706 24.75 18H20.25C20.25 20.4853 18.2353 22.5 15.75 22.5Z" fill="#7C4DFF"></path><path d="M41.2375 24.592C40.2502 24.592 39.29 24.4441 38.3569 24.1482C37.4298 23.8522 36.6442 23.4234 36 22.8618L37.5532 20.3978C37.8121 20.6816 38.1462 20.9292 38.5556 21.1406C38.9709 21.352 39.4134 21.515 39.883 21.6298C40.3526 21.7445 40.8041 21.8019 41.2375 21.8019C41.7854 21.8019 42.2339 21.7174 42.583 21.5483C42.9382 21.3731 43.1158 21.1225 43.1158 20.7964C43.1158 20.5065 42.9834 20.2679 42.7185 20.0807C42.4596 19.8875 41.978 19.6972 41.2737 19.51L40.2623 19.2292C38.9258 18.8608 37.9656 18.3535 37.3816 17.7073C36.8037 17.0611 36.5147 16.2881 36.5147 15.3882C36.5147 14.8145 36.6351 14.286 36.8759 13.8029C37.1228 13.3137 37.4659 12.888 37.9054 12.5256C38.3509 12.1632 38.8716 11.8824 39.4676 11.6831C40.0696 11.4838 40.7198 11.3842 41.4181 11.3842C42.4054 11.3842 43.3235 11.5291 44.1724 11.819C45.0272 12.1029 45.7135 12.4984 46.2312 13.0057L44.6239 15.4063C44.4011 15.1587 44.1212 14.9443 43.7841 14.7631C43.4529 14.5759 43.0887 14.431 42.6914 14.3283C42.2941 14.2196 41.8937 14.1653 41.4904 14.1653C41.1352 14.1653 40.8221 14.2106 40.5512 14.3011C40.2863 14.3917 40.0817 14.5186 39.9372 14.6816C39.7927 14.8386 39.7205 15.0228 39.7205 15.2342C39.7205 15.4154 39.7776 15.5664 39.892 15.6872C40.0064 15.8079 40.1991 15.9227 40.47 16.0314C40.7409 16.1401 41.1081 16.2609 41.5716 16.3937L42.583 16.6927C43.9135 17.0852 44.8737 17.5744 45.4637 18.1602C46.0537 18.746 46.3486 19.5009 46.3486 20.4249C46.3486 21.2463 46.1379 21.971 45.7165 22.5991C45.3011 23.2272 44.7081 23.7163 43.9376 24.0666C43.173 24.4169 42.273 24.592 41.2375 24.592Z" fill="currentColor"></path><path d="M51.7321 24.592C50.8772 24.592 50.1728 24.429 49.619 24.1029C49.0651 23.7707 48.6528 23.3027 48.3819 22.6987C48.1109 22.0948 47.9755 21.3852 47.9755 20.5699V14.9896H51.2625V20.1079C51.2625 20.579 51.3799 20.9473 51.6147 21.2131C51.8495 21.4788 52.2016 21.6117 52.6712 21.6117C52.9722 21.6117 53.2311 21.5483 53.4478 21.4214C53.6706 21.2886 53.8391 21.1044 53.9535 20.8688C54.0739 20.6333 54.1341 20.3615 54.1341 20.0535V14.9896H57.4211V24.3203H54.6127V23.3691C54.3358 23.6771 53.9746 23.9579 53.5291 24.2116C53.0896 24.4652 52.4906 24.592 51.7321 24.592Z" fill="currentColor"></path><path d="M59.7945 28.125V14.9896H62.6029V15.977C62.934 15.5905 63.3614 15.2855 63.8852 15.0621C64.415 14.8326 65.014 14.7179 65.6822 14.7179C66.5612 14.7179 67.3498 14.9202 68.0481 15.3248C68.7465 15.7294 69.2943 16.3032 69.6916 17.046C70.095 17.7828 70.2967 18.6524 70.2967 19.6549C70.2967 20.3555 70.1823 21.0047 69.9535 21.6026C69.7247 22.2005 69.3997 22.7229 68.9782 23.1698C68.5629 23.6167 68.0692 23.967 67.4973 24.2206C66.9314 24.4682 66.3053 24.592 65.619 24.592C65.1314 24.592 64.6708 24.5165 64.2374 24.3656C63.8099 24.2206 63.4186 24.0032 63.0634 23.7133V28.125H59.7945ZM65.0772 21.7747C65.4625 21.7747 65.8086 21.6902 66.1157 21.5211C66.4227 21.3459 66.6605 21.1013 66.8291 20.7873C67.0036 20.4672 67.0909 20.0898 67.0909 19.6549C67.0909 19.2201 67.0036 18.8457 66.8291 18.5316C66.6545 18.2116 66.4137 17.967 66.1066 17.7979C65.7996 17.6227 65.4565 17.5352 65.0772 17.5352C64.6979 17.5352 64.3548 17.6227 64.0477 17.7979C63.7467 17.967 63.5059 18.2116 63.3253 18.5316C63.1507 18.8457 63.0634 19.2201 63.0634 19.6549C63.0634 20.0898 63.1507 20.4672 63.3253 20.7873C63.4999 21.1013 63.7377 21.3459 64.0387 21.5211C64.3457 21.6902 64.6919 21.7747 65.0772 21.7747Z" fill="currentColor"></path><path d="M76.4866 24.592C75.4511 24.592 74.5451 24.3867 73.7685 23.976C72.9919 23.5593 72.3869 22.9826 71.9534 22.2458C71.526 21.503 71.3123 20.6363 71.3123 19.6459C71.3123 18.9212 71.4387 18.2599 71.6915 17.662C71.9444 17.0581 72.2996 16.5387 72.7571 16.1039C73.2146 15.663 73.7534 15.3218 74.3735 15.0802C74.9996 14.8386 75.6859 14.7179 76.4324 14.7179C77.2692 14.7179 78.0097 14.8658 78.6538 15.1617C79.304 15.4516 79.8398 15.8623 80.2612 16.3937C80.6826 16.9192 80.9716 17.5352 81.1281 18.2418C81.2907 18.9484 81.2907 19.7184 81.1281 20.5518H74.2832C74.3013 20.8598 74.4066 21.1285 74.5993 21.358C74.7979 21.5875 75.0658 21.7687 75.403 21.9015C75.7401 22.0284 76.1284 22.0918 76.5679 22.0918C77.1277 22.0918 77.6515 22.0254 78.1391 21.8925C78.6268 21.7536 79.1054 21.5362 79.5749 21.2402L80.5683 23.4416C80.2853 23.659 79.9121 23.8552 79.4485 24.0304C78.991 24.1995 78.5003 24.3354 77.9766 24.438C77.4528 24.5407 76.9562 24.592 76.4866 24.592ZM74.4909 18.3776H78.0217C78.0157 17.9791 77.8592 17.659 77.5522 17.4174C77.2512 17.1758 76.8478 17.055 76.3421 17.055C75.8304 17.055 75.403 17.1758 75.0598 17.4174C74.7227 17.659 74.5331 17.9791 74.4909 18.3776Z" fill="currentColor"></path><path d="M82.8992 24.3203V14.9896H86.1862V16.0223C86.439 15.5633 86.7882 15.2282 87.2337 15.0168C87.6852 14.8054 88.1789 14.6997 88.7146 14.6997C88.9254 14.6997 89.109 14.7148 89.2655 14.745C89.428 14.7692 89.5876 14.7964 89.7441 14.8266L89.3648 18.2055C89.1541 18.121 88.9254 18.0576 88.6785 18.0153C88.4377 17.967 88.1999 17.9428 87.9651 17.9428C87.4474 17.9428 87.02 18.0878 86.6828 18.3776C86.3517 18.6615 86.1862 19.0933 86.1862 19.6731V24.3203H82.8992Z" fill="currentColor"></path><path d="M93.5848 24.3203L90.3519 14.9896H93.8647L95.6617 21.4667H95.3276L97.0704 14.9896H100.502L97.4136 24.3203H93.5848Z" fill="currentColor"></path><path d="M101.789 24.3203V14.9896H105.076V24.3203H101.789ZM103.432 13.6942C102.914 13.6942 102.463 13.5372 102.078 13.2231C101.698 12.9031 101.509 12.4652 101.509 11.9096C101.509 11.36 101.698 10.9252 102.078 10.6051C102.463 10.285 102.914 10.125 103.432 10.125C103.95 10.125 104.398 10.285 104.778 10.6051C105.163 10.9252 105.356 11.36 105.356 11.9096C105.356 12.4652 105.163 12.9031 104.778 13.2231C104.398 13.5372 103.95 13.6942 103.432 13.6942Z" fill="currentColor"></path><path d="M111.036 24.5739C110.145 24.5739 109.335 24.4682 108.606 24.2569C107.878 24.0394 107.243 23.7345 106.701 23.3419L107.685 21.1044C108.215 21.4244 108.772 21.6781 109.356 21.8653C109.946 22.0525 110.497 22.1461 111.008 22.1461C111.436 22.1461 111.761 22.0948 111.984 21.9921C112.206 21.8834 112.318 21.7264 112.318 21.5211C112.318 21.3399 112.215 21.2101 112.011 21.1315C111.806 21.053 111.394 20.9594 110.774 20.8507C109.491 20.6514 108.552 20.3011 107.956 19.7999C107.36 19.2986 107.062 18.6071 107.062 17.7254C107.062 17.1034 107.234 16.5598 107.577 16.0948C107.926 15.6298 108.402 15.2704 109.004 15.0168C109.612 14.7571 110.31 14.6273 111.099 14.6273C111.869 14.6273 112.601 14.7299 113.293 14.9353C113.985 15.1406 114.575 15.4184 115.063 15.7687L114.115 18.0062C113.856 17.819 113.561 17.656 113.23 17.517C112.905 17.3721 112.565 17.2604 112.209 17.1819C111.86 17.0973 111.526 17.055 111.207 17.055C110.834 17.055 110.533 17.1064 110.304 17.209C110.081 17.3057 109.97 17.4446 109.97 17.6258C109.97 17.8069 110.063 17.9398 110.25 18.0243C110.443 18.1089 110.849 18.2176 111.469 18.3505C112.83 18.6222 113.793 18.9876 114.359 19.4466C114.925 19.9056 115.207 20.5518 115.207 21.3852C115.207 22.0254 115.03 22.587 114.675 23.0701C114.326 23.5472 113.838 23.9187 113.212 24.1844C112.586 24.4441 111.86 24.5739 111.036 24.5739Z" fill="currentColor"></path><path d="M121.524 24.592C120.501 24.592 119.595 24.3686 118.806 23.9217C118.023 23.4687 117.409 22.8708 116.964 22.128C116.524 21.3792 116.305 20.5548 116.305 19.6549C116.305 19.0027 116.431 18.3807 116.684 17.7888C116.937 17.197 117.295 16.6716 117.759 16.2126C118.228 15.7536 118.782 15.3912 119.42 15.1255C120.058 14.8537 120.76 14.7179 121.524 14.7179C122.548 14.7179 123.451 14.9443 124.233 15.3973C125.022 15.8442 125.636 16.4421 126.075 17.1909C126.521 17.9338 126.744 18.7551 126.744 19.6549C126.744 20.3011 126.617 20.9232 126.364 21.5211C126.111 22.1129 125.75 22.6383 125.281 23.0973C124.817 23.5563 124.266 23.9217 123.628 24.1934C122.996 24.4592 122.295 24.592 121.524 24.592ZM121.524 21.7747C121.903 21.7747 122.244 21.6902 122.545 21.5211C122.852 21.3459 123.092 21.1013 123.267 20.7873C123.448 20.4672 123.538 20.0898 123.538 19.6549C123.538 19.2201 123.451 18.8457 123.276 18.5316C123.101 18.2116 122.861 17.967 122.554 17.7979C122.253 17.6227 121.909 17.5352 121.524 17.5352C121.139 17.5352 120.793 17.6227 120.486 17.7979C120.179 17.967 119.938 18.2116 119.763 18.5316C119.595 18.8457 119.51 19.2201 119.51 19.6549C119.51 20.0898 119.598 20.4672 119.772 20.7873C119.947 21.1013 120.188 21.3459 120.495 21.5211C120.802 21.6902 121.145 21.7747 121.524 21.7747Z" fill="currentColor"></path><path d="M128.385 24.3203V14.9896H131.672V16.0223C131.925 15.5633 132.274 15.2282 132.72 15.0168C133.171 14.8054 133.665 14.6997 134.201 14.6997C134.412 14.6997 134.595 14.7148 134.752 14.745C134.914 14.7692 135.074 14.7964 135.23 14.8266L134.851 18.2055C134.64 18.121 134.412 18.0576 134.165 18.0153C133.924 17.967 133.686 17.9428 133.451 17.9428C132.934 17.9428 132.506 18.0878 132.169 18.3776C131.838 18.6615 131.672 19.0933 131.672 19.6731V24.3203H128.385Z" fill="currentColor"></path><path d="M139.478 24.3203L144.147 11.6378H148.048L152.726 24.3203H148.978L148.183 21.9015H143.912L143.127 24.3203H139.478ZM144.644 19.1295H147.434L146.043 15.1255L144.644 19.1295Z" fill="currentColor"></path><path d="M154.177 24.3203V11.6378H157.5V24.3203H154.177Z" fill="currentColor"></path></svg>