<svg xmlns="http://www.w3.org/2000/svg" width="142" height="47" viewBox="0 0 142 47" fill="none"><path d="M137.633 7.90371C137.633 6.63012 138.539 5.70508 139.822 5.70508C141.094 5.70508 142 6.63012 142 7.90371C142 9.17541 141.094 10.1136 139.822 10.1136C138.539 10.1136 137.633 9.17541 137.633 7.90371ZM138.098 7.90371C138.098 8.94933 138.767 9.6822 139.824 9.6822C140.87 9.6822 141.559 8.94933 141.559 7.90371C141.559 6.85809 140.87 6.12333 139.824 6.12333C138.765 6.12333 138.098 6.85809 138.098 7.90371ZM140.285 8.14109L140.89 9.03599L140.21 9.0473L139.694 8.18254H139.511V9.04541H138.95V6.72809H139.984C140.468 6.72809 140.792 7.00692 140.792 7.44966C140.792 7.79632 140.598 8.04312 140.285 8.14109ZM139.509 7.23489V7.72096H139.952C140.103 7.72096 140.233 7.6456 140.233 7.47227C140.233 7.29894 140.103 7.23489 139.952 7.23489H139.509Z" fill="black"></path><path d="M67.0232 12.9953C65.8825 11.8966 64.2657 11.348 62.1856 11.348C61.0805 11.3377 59.9849 11.5534 58.9663 11.982C58.0328 12.3671 57.2086 12.9761 56.5663 13.7552C55.9316 14.5426 55.5533 15.5054 55.4821 16.5142H58.6666C58.8114 15.6761 59.2008 15.0407 59.8362 14.6223C60.5223 14.1695 61.3305 13.9376 62.1523 13.9579C63.1501 13.9579 63.9588 14.2474 64.5783 14.8264C65.2283 15.4054 65.5467 16.2841 65.5467 17.4392V17.7142H61.6326C59.5539 17.7142 57.9511 18.1331 56.8239 18.9707C55.7122 19.8074 55.1491 20.9495 55.1491 22.3926C55.1445 23.1935 55.3539 23.9811 55.7556 24.6739C56.1958 25.388 56.8326 25.9599 57.5897 26.3212C58.4133 26.7396 59.4526 26.9567 60.7091 26.9567C62.0118 26.9567 63.0628 26.6817 63.8719 26.1186C64.6471 25.5895 65.2776 24.875 65.7059 24.0399V26.5948H68.7385V17.4378C68.7429 15.5458 68.1653 14.0737 67.0232 12.9953ZM64.8866 22.1147C64.577 22.7757 64.0987 23.3433 63.4999 23.7606C62.9209 24.1649 62.1971 24.3671 61.3286 24.3671C60.4471 24.3671 59.7537 24.1789 59.2485 23.7881C59.0029 23.5984 58.8065 23.3526 58.6758 23.0712C58.545 22.7898 58.4838 22.4811 58.4973 22.1712C58.4954 21.8549 58.5651 21.5422 58.7012 21.2567C58.8373 20.9711 59.0363 20.7201 59.2833 20.5224C59.8174 20.0751 60.7308 19.858 61.9843 19.858H65.5221C65.4514 20.643 65.236 21.4082 64.8866 22.1147V22.1147Z" fill="black"></path><path d="M75.8849 32.8765H72.2458L75.4666 25.7865L69.0106 11.5762H72.6497L77.2427 22.2054L81.8632 11.5762H85.5312L75.8849 32.8765Z" fill="black"></path><path d="M97.2419 4.09961V13.6171C96.7189 12.9294 96.0409 12.3749 95.2631 11.9988C94.3924 11.535 93.4196 11.2967 92.4332 11.3054C90.382 11.3054 88.6696 12.0711 87.2626 13.5881C85.8556 15.1052 85.184 16.9522 85.184 19.1191C85.184 21.2861 85.8773 23.1331 87.2626 24.6501C88.6479 26.1672 90.3965 26.9315 92.4332 26.9315C93.4161 26.9396 94.3865 26.7118 95.2631 26.267C96.0404 25.8778 96.7175 25.3146 97.2419 24.6212V26.6275H100.549V4.09961H97.2419ZM96.2604 22.5411C95.8563 22.9909 95.3595 23.3478 94.8043 23.5872C94.249 23.8266 93.6485 23.9428 93.044 23.9278C91.7297 23.9278 90.6614 23.4661 89.8233 22.5411C88.9852 21.6161 88.5668 20.4755 88.5668 19.1191C88.5668 17.7628 88.9721 16.6207 89.8233 15.6957C90.2284 15.2461 90.726 14.8893 91.2819 14.65C91.8378 14.4106 92.4389 14.2943 93.044 14.309C94.3584 14.309 95.4267 14.7722 96.2648 15.6957C97.1029 16.6193 97.5212 17.7614 97.5212 19.1191C97.5212 20.4769 97.1145 21.6176 96.2633 22.5411H96.2604Z" fill="black"></path><path d="M116.028 13.5874C114.525 12.0704 112.662 11.3047 110.439 11.3047C108.215 11.3047 106.338 12.0704 104.821 13.5874C103.304 15.1044 102.569 16.937 102.569 19.1184C102.569 21.2999 103.32 23.1614 104.821 24.6784C106.322 26.1954 108.215 26.9307 110.439 26.9307C112.662 26.9307 114.525 26.1795 116.028 24.6784C116.765 23.955 117.348 23.0889 117.74 22.1331C118.132 21.1772 118.326 20.1515 118.309 19.1184C118.309 16.937 117.543 15.0885 116.028 13.5874ZM113.645 22.5114C112.807 23.4219 111.739 23.8692 110.439 23.8692C109.828 23.8851 109.22 23.7724 108.655 23.5385C108.091 23.3046 107.581 22.9547 107.16 22.5114C106.323 21.5879 105.904 20.4603 105.904 19.1184C105.904 17.7766 106.323 16.649 107.16 15.7529C107.577 15.3018 108.084 14.9447 108.65 14.7056C109.215 14.4664 109.825 14.3507 110.439 14.3662C111.739 14.3662 112.807 14.8284 113.645 15.7529C114.496 16.649 114.93 17.7795 114.93 19.1184C114.93 20.4574 114.511 21.5879 113.645 22.5114V22.5114Z" fill="black"></path><path d="M133.113 13.6675C131.612 12.1505 129.749 11.3848 127.524 11.3848C125.299 11.3848 123.423 12.1505 121.908 13.6675C120.392 15.1845 119.654 17.0171 119.654 19.1985C119.654 21.3799 120.405 23.2415 121.908 24.7585C123.41 26.2755 125.301 27.0108 127.524 27.0108C129.747 27.0108 131.612 26.2595 133.113 24.7585C134.644 23.227 135.394 21.3785 135.394 19.1985C135.394 17.0185 134.63 15.1672 133.113 13.6675ZM130.745 22.5915C129.892 23.502 128.824 23.9493 127.524 23.9493C126.913 23.9639 126.306 23.8506 125.742 23.6168C125.178 23.3829 124.668 23.0337 124.247 22.5915C123.409 21.668 122.99 20.5404 122.99 19.1985C122.99 17.8567 123.409 16.729 124.247 15.833C125.115 14.9095 126.197 14.4463 127.524 14.4463C128.851 14.4463 129.907 14.9095 130.745 15.833C131.597 16.729 132.03 17.8596 132.03 19.1985C132.03 20.5375 131.612 21.668 130.745 22.5915V22.5915Z" fill="black"></path><path d="M48.0881 26.6017V17.5821L40.0022 5.26367H44.1175L49.8222 14.1023L55.553 5.26367H59.6987L51.5824 17.6111V26.6017H48.0881Z" fill="black"></path><path d="M13.4749 1.01745L11.1951 3.2973L15.9314 8.03506L20.6677 3.2973L18.3878 1.01745C17.7363 0.365985 16.8527 0 15.9314 0C15.01 0 14.1264 0.365985 13.4749 1.01745V1.01745Z" fill="#29ABE2"></path><path d="M8.82534 5.66602L4.87793 9.61487L14.2565 18.9934V11.0971L8.82534 5.66602Z" fill="#29ABE2"></path><path d="M2.50985 11.9824L1.01745 13.4734C0.365985 14.1249 0 15.0085 0 15.9298C0 16.8512 0.365985 17.7348 1.01745 18.3863L14.2565 31.6254V23.732L2.50985 11.9824Z" fill="#29ABE2"></path><path d="M23.0386 5.66602L26.9861 9.61487L17.6061 18.9934V11.0971L23.0386 5.66602Z" fill="#29ABE2"></path><path d="M29.3527 11.9824L30.8437 13.4734C31.4952 14.1249 31.8611 15.0085 31.8611 15.9298C31.8611 16.8512 31.4952 17.7348 30.8437 18.3863L17.6046 31.6254V23.732L29.3527 11.9824Z" fill="#29ABE2"></path><path d="M74.6983 45.5259H73.8844L74.8097 43.5329L72.9503 39.5098H73.7567L75.2166 42.7354L76.6675 39.5098H77.4814L74.6983 45.5259Z" fill="black"></path><path d="M70.9395 43.837C70.6368 43.8394 70.3381 43.7681 70.0692 43.6291C69.8203 43.5073 69.6058 43.325 69.4455 43.0989V43.7523H68.7163V37.3887H69.4455V40.1628C69.6066 39.9375 69.8209 39.7554 70.0692 39.6327C70.3384 39.4943 70.6369 39.423 70.9395 39.4247C71.2189 39.4189 71.4962 39.4734 71.7525 39.5847C72.0088 39.6959 72.2381 39.8612 72.4246 40.0693C72.8088 40.4978 73.0212 41.0531 73.0212 41.6286C73.0212 42.2042 72.8088 42.7595 72.4246 43.188C72.2389 43.3973 72.0099 43.5638 71.7535 43.6759C71.497 43.7879 71.2193 43.8429 70.9395 43.837V43.837ZM69.7945 42.7261C69.9284 42.8657 70.0891 42.9767 70.267 43.0525C70.4449 43.1284 70.6362 43.1674 70.8296 43.1674C71.023 43.1674 71.2144 43.1284 71.3922 43.0525C71.5701 42.9767 71.7308 42.8657 71.8647 42.7261C72.1273 42.4219 72.2717 42.0335 72.2717 41.6316C72.2717 41.2298 72.1273 40.8413 71.8647 40.5371C71.7308 40.3976 71.5701 40.2865 71.3922 40.2107C71.2144 40.1349 71.023 40.0958 70.8296 40.0958C70.6362 40.0958 70.4449 40.1349 70.267 40.2107C70.0891 40.2865 69.9284 40.3976 69.7945 40.5371C69.5311 40.8409 69.386 41.2295 69.386 41.6316C69.386 42.0337 69.5311 42.4223 69.7945 42.7261V42.7261Z" fill="black"></path><path d="M87.3362 40.2117C87.3362 38.904 86.5773 38.046 85.4385 38.046C84.2998 38.046 83.5116 38.904 83.5116 40.2117C83.5116 41.5193 84.2706 42.3773 85.4385 42.3773C86.6065 42.3773 87.3362 41.5193 87.3362 40.2117ZM81.9089 46.4164V36.8745C81.9089 36.7604 82.0009 36.6671 82.1163 36.6671H83.4183C83.5323 36.6671 83.6256 36.759 83.6256 36.8745V37.5543C84.0475 36.9493 84.8207 36.5566 85.7628 36.5566C87.8016 36.5566 89.0529 38.0467 89.0529 40.2124C89.0529 42.378 87.7168 43.8681 85.6359 43.8681C84.7779 43.8681 84.019 43.531 83.6256 42.9823V46.4178C83.6256 46.5319 83.5337 46.6252 83.4183 46.6252H82.1163C82.0023 46.6252 81.9089 46.5333 81.9089 46.4178V46.4164Z" fill="black"></path><path d="M93.9958 40.8179V40.7053H92.4074C91.6762 40.7053 91.1838 41.1129 91.1838 41.7322C91.1838 42.2809 91.6327 42.6465 92.2812 42.6465C93.3637 42.6465 93.9958 41.8876 93.9958 40.8193V40.8179ZM95.6982 39.2573V43.6057C95.6982 43.7197 95.6063 43.813 95.4909 43.813H94.2024C94.0884 43.813 93.9951 43.7211 93.9951 43.6057V42.7577C93.7 43.4603 92.8848 43.9242 91.8715 43.9242C90.4648 43.9242 89.5084 43.0242 89.5084 41.8006C89.5084 40.4224 90.5766 39.5644 92.1665 39.5644H93.4741C93.8255 39.5644 93.9936 39.367 93.9936 39.0863C93.9936 38.3979 93.4592 37.9054 92.5449 37.9054C91.714 37.9054 91.1845 38.3822 91.0748 38.9452C91.0562 39.0428 90.9729 39.1148 90.8731 39.1148H89.7386C89.6118 39.1148 89.5141 39.0022 89.5327 38.8775C89.73 37.5876 90.8916 36.6113 92.6283 36.6113C94.3649 36.6113 95.6939 37.6525 95.6939 39.2551L95.6982 39.258V39.2573Z" fill="black"></path><path d="M102.271 36.7246C102.415 36.7246 102.514 36.8671 102.466 37.0025L100.093 43.4745L99.0431 46.5402C99.0146 46.6236 98.9362 46.6799 98.8471 46.6799H97.6407C97.4981 46.6799 97.3991 46.5402 97.4447 46.4048L98.3476 43.8116L95.8627 37.0025C95.8135 36.8671 95.9133 36.7246 96.0572 36.7246H97.3706C97.4596 36.7246 97.5373 36.7809 97.5665 36.8657L99.1649 41.5897L100.749 36.8657C100.778 36.7823 100.856 36.7246 100.945 36.7246H102.273H102.271Z" fill="black"></path><path d="M102.774 41.4505H103.948C104.044 41.4505 104.127 41.5182 104.148 41.6116C104.279 42.1917 104.776 42.5473 105.486 42.5473C106.196 42.5473 106.61 42.2102 106.61 41.7883C106.61 40.2134 102.73 41.7178 102.73 38.7226C102.73 37.4855 103.813 36.6133 105.274 36.6133C106.836 36.6133 107.938 37.4242 108.12 38.6692C108.138 38.7932 108.039 38.9036 107.914 38.9036H106.733C106.641 38.9036 106.56 38.8431 106.536 38.7554C106.376 38.1924 105.822 37.906 105.316 37.906C104.697 37.906 104.289 38.1867 104.289 38.6649C104.289 40.197 108.226 38.511 108.226 41.7163C108.226 43.0525 107.143 43.924 105.484 43.924C103.825 43.924 102.752 43.066 102.567 41.6836C102.551 41.5596 102.648 41.4491 102.773 41.4491L102.774 41.4505Z" fill="black"></path><path d="M109.981 34.5879H111.297C111.411 34.5879 111.505 34.6798 111.505 34.7953V36.7265L113.267 36.7293C113.381 36.7293 113.474 36.8212 113.474 36.9367V37.8153C113.474 37.9294 113.382 38.0227 113.267 38.0227L111.505 38.0199V41.1718C111.505 41.8887 111.884 42.2542 112.531 42.2542H113.268C113.382 42.2542 113.475 42.3462 113.475 42.4616V43.6089C113.475 43.7229 113.383 43.8163 113.268 43.8163H112.336C110.79 43.8163 109.777 42.9163 109.777 41.3414V38.0213H108.592C108.478 38.0213 108.385 37.9294 108.385 37.8139V36.9353C108.385 36.8212 108.477 36.7279 108.592 36.7279H109.777V34.7967C109.777 34.6827 109.869 34.5893 109.985 34.5893L109.982 34.5879H109.981Z" fill="black"></path><path d="M118.478 40.8179V40.7053H116.89C116.159 40.7053 115.666 41.1129 115.666 41.7322C115.666 42.2809 116.115 42.6465 116.764 42.6465C117.846 42.6465 118.478 41.8876 118.478 40.8193V40.8179ZM120.181 39.2573V43.6057C120.181 43.7197 120.089 43.813 119.973 43.813H118.685C118.571 43.813 118.478 43.7211 118.478 43.6057V42.7577C118.183 43.4603 117.367 43.9242 116.354 43.9242C114.947 43.9242 113.991 43.0242 113.991 41.8006C113.991 40.4224 115.059 39.5644 116.649 39.5644H117.957C118.308 39.5644 118.476 39.367 118.476 39.0863C118.476 38.3979 117.942 37.9054 117.027 37.9054C116.197 37.9054 115.667 38.3822 115.557 38.9452C115.539 39.0428 115.455 39.1148 115.356 39.1148H114.221C114.094 39.1148 113.997 39.0022 114.015 38.8775C114.213 37.5876 115.374 36.6113 117.111 36.6113C118.847 36.6113 120.176 37.6525 120.176 39.2551L120.181 39.258V39.2573Z" fill="black"></path><path d="M121.075 43.605V36.9306C121.075 36.8166 121.167 36.7232 121.282 36.7232H122.599C122.713 36.7232 122.806 36.8151 122.806 36.9306V37.8206C123.199 37.0475 124.001 36.6113 125.014 36.6113C126.616 36.6113 127.657 37.7643 127.657 39.4233V43.6035C127.657 43.7176 127.566 43.8109 127.45 43.8109H126.134C126.02 43.8109 125.927 43.719 125.927 43.6035V39.7896C125.927 38.819 125.336 38.1442 124.451 38.1442C123.48 38.1442 122.805 38.9031 122.805 39.9442V43.6042C122.805 43.7183 122.713 43.8116 122.597 43.8116H121.281C121.167 43.8116 121.074 43.7197 121.074 43.6042L121.075 43.6057V43.605Z" fill="black"></path><path d="M133.809 40.2692C133.809 38.9616 133.05 38.1036 131.897 38.1036C130.744 38.1036 129.985 38.9616 129.985 40.2692C129.985 41.5769 130.744 42.4349 131.897 42.4349C133.05 42.4349 133.809 41.5769 133.809 40.2692ZM128.268 40.2692C128.268 38.1036 129.52 36.6135 131.615 36.6135C132.543 36.6135 133.288 37.0069 133.696 37.5841V33.8949C133.696 33.7809 133.788 33.6875 133.903 33.6875H135.205C135.319 33.6875 135.412 33.7794 135.412 33.8949V43.6057C135.412 43.7197 135.32 43.8131 135.205 43.8131H133.903C133.789 43.8131 133.696 43.7212 133.696 43.6057V42.9259C133.288 43.5451 132.501 43.9235 131.643 43.9235C129.519 43.9235 128.268 42.4335 128.268 40.2678L128.269 40.2692H128.268Z" fill="black"></path></svg>